<?xml version="1.0" standalone="no"?>
<!DOCTYPE svg PUBLIC "-//W3C//DTD SVG 20010904//EN"
 "http://www.w3.org/TR/2001/REC-SVG-20010904/DTD/svg10.dtd">
<svg version="1.0" xmlns="http://www.w3.org/2000/svg"
 width="260.000000pt" height="260.000000pt" viewBox="0 0 260.000000 260.000000"
 preserveAspectRatio="xMidYMid meet">
<metadata>
Created by potrace 1.14, written by Peter Selinger 2001-2017
</metadata>
<g transform="translate(0.000000,260.000000) scale(0.100000,-0.100000)"
fill="#000000" stroke="none">
<path d="M1100 2425 c-85 -16 -229 -64 -305 -102 -215 -108 -406 -299 -516
-514 -160 -318 -167 -645 -19 -974 30 -67 127 -225 138 -225 14 0 574 224 707
283 152 67 200 104 211 161 7 42 -25 108 -63 125 -15 7 -97 11 -211 11 -270 1
-434 14 -474 37 -96 56 -113 181 -37 267 47 54 173 109 739 321 289 108 592
222 674 253 l149 56 -44 39 c-123 109 -295 199 -467 244 -122 32 -361 41 -482
18z"/>
<path d="M1910 1881 c-482 -188 -562 -230 -590 -309 -13 -37 -13 -47 0 -84 24
-70 31 -71 385 -78 254 -5 315 -9 340 -22 85 -45 119 -152 75 -238 -27 -53
-79 -82 -315 -175 -1005 -396 -1261 -497 -1268 -504 -11 -11 108 -104 201
-157 98 -56 211 -100 326 -126 108 -25 344 -30 441 -10 380 81 670 306 831
647 68 143 95 261 101 435 6 172 -10 280 -61 424 -49 137 -148 307 -179 305
-6 0 -136 -49 -287 -108z"/>
<path d="M92 1763 c-16 -43 -33 -94 -36 -113 -4 -19 9 8 27 60 19 52 37 103
42 113 4 9 5 17 2 17 -3 0 -19 -35 -35 -77z"/>
<path d="M32 1555 c-7 -32 -12 -68 -11 -79 0 -12 7 11 15 49 8 39 12 74 11 80
-2 5 -9 -17 -15 -50z"/>
<path d="M14 1305 c0 -82 2 -115 3 -72 2 43 2 110 0 150 -1 40 -3 5 -3 -78z"/>
<path d="M22 1115 c0 -16 2 -22 5 -12 2 9 2 23 0 30 -3 6 -5 -1 -5 -18z"/>
<path d="M32 1060 c0 -14 4 -36 8 -50 6 -20 8 -21 8 -5 0 11 -4 34 -8 50 -7
27 -8 27 -8 5z"/>
<path d="M51 970 c0 -8 4 -24 9 -35 5 -13 9 -14 9 -5 0 8 -4 24 -9 35 -5 13
-9 14 -9 5z"/>
<path d="M2413 827 c-61 -62 -130 -141 -153 -177 -57 -85 -227 -254 -315 -313
-71 -46 -290 -257 -268 -257 23 0 143 49 226 92 90 47 202 127 290 208 75 69
192 224 244 325 39 77 97 224 90 231 -2 2 -53 -47 -114 -109z"/>
<path d="M90 845 c0 -5 5 -17 10 -25 5 -8 10 -10 10 -5 0 6 -5 17 -10 25 -5 8
-10 11 -10 5z"/>
<path d="M120 776 c0 -11 40 -86 45 -86 3 0 -4 19 -16 43 -23 45 -29 54 -29
43z"/>
</g>
</svg>
